/* XPM */
static char *close_unfocus[] = {
/* columns rows colors chars-per-pixel */
"20 20 58 1 ",
"  c #090909",
". c #1B1A18",
"X c #1B1B19",
"o c #1C1B1A",
"O c #1F1E1C",
"+ c #201F1D",
"@ c #20201E",
"# c #232320",
"$ c #242421",
"% c #242422",
"& c #3C3B37",
"* c #3C3C37",
"= c #3D3D39",
"- c #3E3D39",
"; c #403E3A",
": c #403F3B",
"> c #41403B",
", c #43413D",
"< c #44433F",
"1 c #47453F",
"2 c #464540",
"3 c #474640",
"4 c #484740",
"5 c #4A4841",
"6 c #4D4B43",
"7 c #4A4944",
"8 c #4C4C47",
"9 c #4D4D47",
"0 c #4F4E49",
"q c #504E46",
"w c #525149",
"e c #51514B",
"r c #54524B",
"t c #53524D",
"y c #55534C",
"u c #58564F",
"i c #555550",
"p c #595951",
"a c #5A5A54",
"s c #5B5B55",
"d c #5D5B55",
"f c #5D5D56",
"g c #5C5C57",
"h c #5E5E58",
"j c #605F5A",
"k c #60605A",
"l c #61615B",
"z c #63625B",
"x c #63625C",
"c c #64635D",
"v c #64645D",
"b c #67675D",
"n c #67665F",
"m c #686760",
"M c #686860",
"N c #6B6A62",
"B c #6C6B63",
"V c #6C6C62",
/* pixels */
"uuuuuuuuuuuuuuuuuuuu",
"yyyyyr91>**>49yyyryy",
"wwww9;1dbVVmp1;0wwww",
"qqq3;fNNVNNBVNf-5qq9",
"661;nMNNNBBMNNNb-396",
"54-zMMMNMMMmMMMMx-45",
"1,9MMMMMMMmmmmMmM0-3",
",-znmm9@cMnc+0mmnx-,",
"-,nnnnn#oczX$cbmnx3-",
"-7nnnnnv%oo@bmcnnn7&",
"*0nvxnnvj  jxncnvv0&",
"*8xnznvko%%oznccnv7&",
"&,vvvvkX#vz@Xzxvxv,&",
"&&kvvx8OkxvkX0xvnh**",
"&&0xxvvxxvvzzvvzv8-&",
"&&-axxzxxzxxxxxxa&&&",
"&&&-gxxxxxkxxkxg--&&",
"&&&*-ikzxxxkkxi-**&&",
"&&&&*-,tahhae,-&&&&&",
"&&&&****-*---***&&&&"
};
