/* XPM */
static char *close_focus[] = {
/* columns rows colors chars-per-pixel */
"20 20 135 2 ",
"   c #170C04",
".  c #3F220C",
"X  c #3C3A37",
"o  c #3C3B37",
"O  c #3D3C36",
"+  c #3D3B38",
"@  c #3D3C38",
"#  c #3E3D38",
"$  c #3F3E39",
"%  c #40220B",
"&  c #462309",
"*  c #41240E",
"=  c #49260B",
"-  c #512A0E",
";  c #4A2B13",
":  c #542E11",
">  c #563013",
",  c #433D34",
"<  c #433C35",
"1  c #443E34",
"2  c #433E38",
"3  c #56422F",
"4  c #59422E",
"5  c #444039",
"6  c #46423B",
"7  c #43413D",
"8  c #46433C",
"9  c #47453F",
"0  c #4A443C",
"q  c #49473F",
"w  c #4D453C",
"e  c #5B4634",
"r  c #5A4737",
"t  c #5D4937",
"y  c #7F512B",
"u  c #785131",
"i  c #7D5434",
"p  c #484740",
"a  c #494740",
"s  c #4A4841",
"d  c #4D4B43",
"f  c #4C4C45",
"g  c #4E4D46",
"h  c #504E46",
"j  c #5B5345",
"k  c #5D5246",
"l  c #525149",
"z  c #54524B",
"x  c #55534C",
"c  c #58564F",
"v  c #94511A",
"b  c #99531A",
"n  c #BA5C0F",
"m  c #AE5916",
"M  c #A75918",
"N  c #BF6319",
"B  c #BD631C",
"V  c #84532B",
"C  c #8D5931",
"Z  c #8F5C32",
"A  c #885F3F",
"S  c #BB6A2D",
"D  c #C95F0A",
"F  c #D8660B",
"G  c #D9670B",
"H  c #DB690F",
"J  c #DB6A0F",
"K  c #C26217",
"L  c #C86314",
"P  c #DB6A10",
"I  c #DE6D13",
"U  c #DE6D14",
"Y  c #DF6E15",
"T  c #D26D1F",
"R  c #DE711D",
"E  c #E17018",
"W  c #E17019",
"Q  c #E3731D",
"!  c #E4741D",
"~  c #E4751E",
"^  c #D67021",
"/  c #E27621",
"(  c #E47722",
")  c #E27726",
"_  c #E77823",
"`  c #E87924",
"'  c #E97A26",
"]  c #E97B26",
"[  c #E17A29",
"{  c #EA7C28",
"}  c #ED7F2C",
"|  c #ED7F2D",
" . c #886241",
".. c #ED802D",
"X. c #EC802F",
"o. c #EF822F",
"O. c #E98133",
"+. c #EF8230",
"@. c #E28238",
"#. c #EC873A",
"$. c #EC883C",
"%. c #F08331",
"&. c #F18534",
"*. c #F38736",
"=. c #F48A3A",
"-. c #F38B3D",
";. c #F38D3F",
":. c #A48865",
">. c #A68967",
",. c #B38A60",
"<. c #B68E64",
"1. c #CC8950",
"2. c #CF8E56",
"3. c #D5975F",
"4. c #E18640",
"5. c #F38D40",
"6. c #F29349",
"7. c #F2944B",
"8. c #F1964D",
"9. c #F1974F",
"0. c #EF9F5B",
"q. c #F09D57",
"w. c #F09E59",
"e. c #EFA05C",
"r. c #D79B65",
"t. c #D3A979",
"y. c #D5AC7B",
"u. c #EEA666",
"i. c #EEA766",
"p. c #EDA96A",
"a. c #ECB074",
"s. c #ECB176",
"d. c #ECB278",
"f. c #E5B782",
"g. c #E6B883",
/* pixels */
"c c c c c c c x c c x c c c c c c c c c ",
"x x x x x l f f 0 2 @ p d f x x l x x x ",
"l l l l f 8 j >.y.g.g.y.:.k 0 f l l l x ",
"h h h a 6 <.d.a.d.d.a.a.a.a.,.a d h h f ",
"d d a 0 r.p.p.p.p.p.u.u.u.u.u.3.0 s d f ",
"s a 2 2.e.e.0.0.w.w.w.0.w.w.q.q.1.5 0 s ",
"9 6  .9.9.9.9.9.9.6.7.7.7.6.6.6.6.A 5 s ",
"7 2 4.5.;.;.S ; $.;.-.#.; S =.=.=.@.# 7 ",
"2 t *.&.*.&.&.> * O.O.* : &.&.&.&.&.r 2 ",
"@ V &.o.%.+.+.| : * . : +.| +.+.+.o.i @ ",
"@ Z | O.| | | | [     ) } ..| | o.' C O ",
"@ i { { ' } ' ) . - - . / ' ' ' ' ( u X ",
"@ e ' / ' _ / * - ( / = . Q / ( / ( e X ",
"+ @ ^ ~ ~ / m & R / ! R & m ! ! Q T , + ",
"+ 1 V E E ~ E E E E E E E E E E E y # o ",
"+ # 2 B Y Y Y U U U U U U U I I N # O @ ",
"+ + X 5 K J J J J J P J J J J L < O O X ",
"+ + O X , M J F F F F F F F M < < X X @ ",
"+ X X O O , 4 b D D D n v 4 < @ @ O @ X ",
"X X O X # X X , , O , , < X X X X X X O "
};
