/* XPM */
static char *close_pressed[] = {
/* columns rows colors chars-per-pixel */
"20 20 121 2 ",
"   c #170C05",
".  c #3C3B37",
"X  c #3E3C38",
"o  c #42220B",
"O  c #40210C",
"+  c #43230E",
"@  c #43240F",
"#  c #4B260C",
"$  c #572D0F",
"%  c #4A2912",
"&  c #4D2A11",
"*  c #562C10",
"=  c #542C12",
"-  c #542D13",
";  c #413D37",
":  c #423D37",
">  c #443E36",
",  c #4A4036",
"<  c #494237",
"1  c #4E4234",
"2  c #434039",
"3  c #464038",
"4  c #464139",
"5  c #454239",
"6  c #44423D",
"7  c #47453F",
"8  c #4A4239",
"9  c #48463F",
"0  c #4A473F",
"q  c #4D463C",
"w  c #5D4632",
"e  c #5B4734",
"r  c #5A4637",
"t  c #5D4735",
"y  c #5D4837",
"u  c #594D3D",
"i  c #7E5333",
"p  c #7C5436",
"a  c #7F5536",
"s  c #484640",
"d  c #4A4841",
"f  c #4D4B43",
"g  c #4D4B44",
"h  c #504E46",
"j  c #525149",
"k  c #54524B",
"l  c #55534C",
"z  c #58564F",
"x  c #BA5E1D",
"c  c #BB5E1D",
"v  c #89562F",
"b  c #8E582F",
"n  c #835533",
"m  c #865D3B",
"M  c #905A34",
"N  c #925C34",
"B  c #AD5D23",
"V  c #BB6323",
"C  c #B7652D",
"Z  c #B9652C",
"A  c #DF6E19",
"S  c #DF6F1F",
"D  c #DD701F",
"F  c #E06D19",
"G  c #F37316",
"H  c #F77618",
"J  c #F6771B",
"K  c #F6771C",
"L  c #F6791F",
"P  c #D36D23",
"I  c #D36D24",
"U  c #DF7F3B",
"Y  c #E27427",
"T  c #EE7925",
"R  c #E47628",
"E  c #E77A2D",
"W  c #EB7928",
"Q  c #F57A23",
"!  c #F57B25",
"~  c #F57C26",
"^  c #F17C29",
"/  c #F47D29",
"(  c #F47D2A",
")  c #F17D2C",
"_  c #F47E2C",
"`  c #F47F2D",
"'  c #EB7D31",
"]  c #EA7F35",
"[  c #9C764B",
"{  c #A0784B",
"}  c #AF7B49",
"|  c #B17E4B",
" . c #C57D43",
".. c #EB8139",
"X. c #F38030",
"o. c #F38031",
"O. c #F38134",
"+. c #F28337",
"@. c #F28338",
"#. c #F2843B",
"$. c #F1853C",
"%. c #CC8245",
"&. c #CE8649",
"*. c #D38B4C",
"=. c #C48F53",
"-. c #C99154",
";. c #D39856",
":. c #D69957",
">. c #EF8A40",
",. c #EE8B41",
"<. c #EE8B42",
"1. c #EC8F46",
"2. c #EB9047",
"3. c #EC9046",
"4. c #EC9047",
"5. c #E9954C",
"6. c #E8954D",
"7. c #E8964D",
"8. c #E59B52",
"9. c #E59B53",
"0. c #E69A52",
/* pixels */
"z z z z z z z z z z z z z z z z z z z z ",
"l l l l l l g q < ; : > q f l l l l l l ",
"j j j j f 1 w B A G G F B t < g j j j j ",
"h h h 0 > V J J J H H H H H V > 0 h h h ",
"f f 0 1 S K J J L H L H H H L S > 0 f g ",
"d s > I Q L L L L L L L Q K L L P ; 0 s ",
"7 4 b Q Q Q Q Q Q Q Q L Q Q Q Q Q v > s ",
"6 ; R ~ ! ~ x # T ~ ~ T # c ~ Q ! R : 6 ",
"; t / / / / ) * o W W O $ ^ / / ` ( r : ",
"X n X.X.o./ o./ * O O $ ` ` / ` ` ` i . ",
". N X.X.o.o.X.X.E     E ` O.` ` ` O.M . ",
". a +.o.+.o.o.' + * - O ] ` ] +.` O.p . ",
". y +.+.+.#...o * O...& @ ] ` #.O.@.r . ",
". ; ..$.#.#.C % ..#.@...& Z #.#.@.U ; . ",
". X m <.<.<.<.<.<.<.$.<.<.<.<.<.$.m X . ",
". . X %.2.2.2.2.2.4.1.1.1.1.1.1. .; X . ",
". . X < *.7.7.7.7.7.7.7.7.7.7.&.> : . . ",
". . . X 4 | 9.9.8.8.8.9.9.9.} 4 X X . . ",
". . . . . 2 u [ =.;.:.-.{ u > . . . . . ",
". . . . . . . 2 4 2 2 4 : . X . . . . . "
};
