/* XPM */
static char *maximize_unfocus[] = {
/* columns rows colors chars-per-pixel */
"20 20 52 1 ",
"  c #3C3B37",
". c #3D3B37",
"X c #3D3B38",
"o c #3C3C38",
"O c #3E3D39",
"+ c #3F3E3A",
"@ c #3F3F3A",
"# c #403F3B",
"$ c #40403B",
"% c #42413C",
"& c #44423D",
"* c #47453F",
"= c #464440",
"- c #474541",
"; c #474742",
": c #484740",
"> c #4A4841",
", c #4D4B43",
"< c #4B4A44",
"1 c #4B4A46",
"2 c #4C4B46",
"3 c #4C4C45",
"4 c #4F4D46",
"5 c #4E4D47",
"6 c #504E46",
"7 c #505049",
"8 c #525149",
"9 c #50504B",
"0 c #51504B",
"q c #55534C",
"w c #55544F",
"e c #58564F",
"r c #5A5953",
"t c #595854",
"y c #5C5C55",
"u c #5E5C56",
"i c #5E5D57",
"p c #5F5E58",
"a c #61615B",
"s c #64645B",
"d c #62625C",
"f c #63635C",
"g c #64635D",
"h c #65645D",
"j c #65645E",
"k c #65655E",
"l c #66655F",
"z c #686760",
"x c #696961",
"c c #6C6B63",
"v c #6C6C63",
"b c #6D6D64",
/* pixels */
"eeeeeeeeeeeeeeeeteee",
"qqqqqqqqqqqqqqqqqq8q",
"888888884<3588888888",
"66666>*&487>$-346666",
",,,>&<sbbbbbva>%<<<,",
">>:%uvvbvvvvvvbr#::,",
"**$uxxxxxcxcccxxu%-:",
"&%8xxxkppupuugxxz8##",
"#Ojzzx9%->**%0xzxk@@",
".,zzzz99kkzx80zlll;#",
".0jzkj99kkjj00jjkg9 ",
"Oejzjl99kkzj00jkkkw ",
".0kjkk99jlak00jjgg9 ",
".%gkks9<rrrt<0kkgk= ",
" Ousdsw->-*--eassiO ",
"  -gdddaggakasajg-  ",
"  O<sgggkaasggsg<o  ",
"  oO-paaaaaaaap-O   ",
"    o@3taaagt<@     ",
"     ooO@OOOOo      "
};
