/* XPM */
static char *maximize_focus[] = {
/* columns rows colors chars-per-pixel */
"20 20 64 1 ",
"  c #3C3B37",
". c #3D3B38",
"X c #3E3E39",
"o c #403E3B",
"O c #42403C",
"+ c #43413D",
"@ c #43433D",
"# c #44423D",
"$ c #47453F",
"% c #454440",
"& c #474641",
"* c #484742",
"= c #4A4841",
"- c #4A4943",
"; c #4D4B43",
": c #4C4A46",
"> c #4C4B47",
", c #4E4E46",
"< c #4F4E4A",
"1 c #504E46",
"2 c #525149",
"3 c #55534C",
"4 c #54544F",
"5 c #58564F",
"6 c #565651",
"7 c #575651",
"8 c #595953",
"9 c #5B5A55",
"0 c #5C5C56",
"q c #5D5D57",
"w c #5F5E58",
"e c #61615A",
"r c #62625C",
"t c #63635D",
"y c #65655E",
"u c #676661",
"i c #686862",
"p c #696962",
"a c #6B6A64",
"s c #6D6C66",
"d c #6F6E68",
"f c #706F68",
"g c #72726C",
"h c #74736C",
"j c #74736D",
"k c #74746D",
"l c #77766F",
"z c #777670",
"x c #787670",
"c c #787871",
"v c #797872",
"b c #7C7B74",
"n c #7D7C75",
"m c #7F7F78",
"M c #807F78",
"N c #808079",
"B c #83837C",
"V c #84837D",
"C c #84847D",
"Z c #878781",
"A c #888781",
"S c #888881",
"D c #8B8B85",
"F c #8C8B85",
/* pixels */
"55556555556555555555",
"33333333333333333533",
"2222222,====12222222",
"1111,&&2aggu2&&,,,,,",
";;;=$rZFFDDDDZw+=,;;",
"==&+vCSZAAAZZZAx@$==",
"$$+vCCCCVVBVBBCCz+$$",
"#+rMNNvddddddzmmmw++",
"++nnnn0+>:=:#wzncb++",
" 2ccvc00vvvv99vvcz2 ",
" 0llll96zlll88zzcl0 ",
"Xwhlgh96jjjj66hhhh0.",
" 6hgfg66hfhf55ldhd4 ",
" @fdff6<rrrr<6ddfs% ",
" Xydss9***&*&9sssyX ",
"  $iaaaaaaaaaaiai*. ",
"  X>iiiiuiuiuauu,   ",
"   X*yuyyuyuyyy-o   ",
"    XX,9uyyy9>  .   ",
"        XX X X  ..  "
};
