/* XPM */
static char *maximize_pressed[] = {
/* columns rows colors chars-per-pixel */
"20 20 70 1 ",
"  c #3C3A37",
". c #3C3B37",
"X c #3D3C37",
"o c #3D3B38",
"O c #3C3C38",
"+ c #413F3A",
"@ c #403F3B",
"# c #41403B",
"$ c #42413C",
"% c #44423D",
"& c #47453F",
"* c #48463F",
"= c #444440",
"- c #474642",
"; c #4A4742",
": c #4A4841",
"> c #4A4943",
", c #4D4B43",
"< c #4C4A46",
"1 c #4E4E46",
"2 c #4E4C48",
"3 c #4F4F49",
"4 c #504E46",
"5 c #514F4A",
"6 c #525149",
"7 c #51514B",
"8 c #55534C",
"9 c #55554F",
"0 c #58564F",
"q c #575651",
"w c #585752",
"e c #595953",
"r c #5A5A54",
"t c #5C5C56",
"y c #605F5A",
"u c #62615B",
"i c #62625D",
"p c #63635D",
"a c #65645E",
"s c #66665F",
"d c #676661",
"f c #686761",
"g c #686861",
"h c #696962",
"j c #6A6963",
"k c #6D6C66",
"l c #6F6E68",
"z c #6F6E69",
"x c #706F68",
"c c #71716A",
"v c #72726C",
"b c #74736D",
"n c #77766F",
"m c #787771",
"M c #797871",
"N c #797872",
"B c #7C7B74",
"V c #7C7C75",
"C c #7D7C75",
"Z c #807F78",
"A c #808079",
"S c #818079",
"D c #84837C",
"F c #84837D",
"G c #84847D",
"H c #878781",
"J c #888781",
"K c #888881",
"L c #8B8B85",
"P c #8C8B85",
/* pixels */
"0000q00000qqq0000000",
"88888888888888888888",
"66666661:;::16666666",
"44441;=6jvvf5*;14441",
",,,:%sHPPLLLPHu$:1,,",
"::&&VKHHJJJHHFHN$;;:",
"&&#NGGGFDDDDSGGFN$&&",
"%$uSSSmzzzzzcmSVVu$#",
"++BVVVt%<<:<-eVVNN$#",
"X6NNNNeeNNNNeeNNNN6X",
"Xtnnmneennnneennnne.",
"OtbncneqbbbbqqnccntX",
"Oqcvcceqccccqqvccc6.",
"X%xxkc95iiii68zxzx-.",
"oOskzje--;>>;ekkkiOX",
"  -jkjkkjjjjjjjjj-O ",
"X O5djgjjdgdjsjd>O X",
" XOO-isssfssssi-OOXX",
"X...OO>tiisie2#OO X ",
" X..O .$+#.#OOO  X X"
};
