/* XPM */
static char *menu_unfocus[] = {
/* columns rows colors chars-per-pixel */
"20 20 23 1 ",
"  c #3C3B37",
". c #3D3C38",
"X c #403F3A",
"o c #413F3A",
"O c #41403B",
"+ c #43423C",
"@ c #44423D",
"# c #46453F",
"$ c #47453F",
"% c #474640",
"& c #484742",
"* c #4A4841",
"= c #4D4B43",
"- c #4B4A45",
"; c #504E46",
": c #525149",
"> c #54534C",
", c #55534C",
"< c #55554E",
"1 c #58564F",
"2 c #69695F",
"3 c #696960",
"4 c #6B6B61",
/* pixels */
"11111111111111111111",
",,&              &,,",
"::%              &::",
";;#             .$;;",
"==@              @==",
"**@              @**",
"##O              o$&",
"@@o              oO@",
"o+.              .+O",
" ..                .",
"    .,<<<<<<<<<.    ",
"     %24444442#     ",
"      #244442#.     ",
"      .-4442&       ",
"        &44#        ",
"         -*         ",
"                    ",
"                    ",
"                    ",
"                    "
};
