/* XPM */
static char *menu_pressed[] = {
/* columns rows colors chars-per-pixel */
"20 20 25 1 ",
"  c #3C3B37",
". c #3D3C38",
"X c #413F3A",
"o c #41403B",
"O c #43423C",
"+ c #44423D",
"@ c #46453F",
"# c #47453F",
"$ c #474640",
"% c #484742",
"& c #4A4841",
"* c #4D4B43",
"= c #504E46",
"- c #504F4A",
"; c #525149",
": c #53524C",
"> c #55534C",
", c #58564F",
"< c #575651",
"1 c #67665E",
"2 c #6A6A61",
"3 c #8E8E82",
"4 c #8F8F83",
"5 c #8F8F84",
"6 c #929286",
/* pixels */
",,,,,,,,,,,,,,,,<,,,",
">>%              %>>",
";;$              @;;",
"==@             .$==",
"**+              +&*",
"&&+             .+&&",
"@@o              X$+",
"++X              X++",
"X..   ..         .XX",
"...   ..         ..X",
"..  .1222222221o    ",
"  ...;36666663-     ",
"      -366663-      ",
"      .:3663-       ",
"    . ..:33;        ",
"    .....<;         ",
"                    ",
"                    ",
"                    ",
"                    "
};
