/* XPM */
static char *menu_focus[] = {
/* columns rows colors chars-per-pixel */
"20 20 27 1 ",
"  c #3C3B37",
". c #3D3C38",
"X c #3E3D39",
"o c #413F3A",
"O c #41403B",
"+ c #43423C",
"@ c #44423D",
"# c #46453F",
"$ c #47453F",
"% c #474640",
"& c #484742",
"* c #4A4841",
"= c #4D4B43",
"- c #504E46",
"; c #525149",
": c #53524C",
"> c #55534C",
", c #56554E",
"< c #58564F",
"1 c #575650",
"2 c #5B5A54",
"3 c #6C6B63",
"4 c #6F6F67",
"5 c #97978C",
"6 c #98988C",
"7 c #99998D",
"8 c #9C9C90",
/* pixels */
"<<<<<<<<<<<<<<<<<<<<",
">>&              &>>",
";;%              &;;",
"--#              %--",
"==@              @==",
"**@              o**",
"##O              o#&",
"@@o              o@+",
"ooX              Xoo",
"X X                X",
" X  X4444444443O    ",
"     ;58888887;     ",
"      ,588887:      ",
"       17885:       ",
"        175:        ",
"         2,         ",
"                    ",
"                    ",
"                    ",
"                    "
};
