/* XPM */
static char *minimize_pressed[] = {
/* columns rows colors chars-per-pixel */
"20 20 68 1 ",
"  c #3C3A37",
". c #3C3B37",
"X c #3D3C37",
"o c #3C3C38",
"O c #3E3D39",
"+ c #3F3F3A",
"@ c #3F3E3B",
"# c #403E3B",
"$ c #41403B",
"% c #42413C",
"& c #44423D",
"* c #47453F",
"= c #444440",
"- c #4A4742",
"; c #4A4841",
": c #4D4B43",
"> c #4A4844",
", c #4C4C47",
"< c #4E4E46",
"1 c #4E4C48",
"2 c #504E46",
"3 c #514F4A",
"4 c #525149",
"5 c #51514B",
"6 c #55534C",
"7 c #54544D",
"8 c #55554F",
"9 c #58564F",
"0 c #5B5B55",
"q c #5E5E57",
"w c #5F5E59",
"e c #62615B",
"r c #63635D",
"t c #66665F",
"y c #676661",
"u c #686761",
"i c #686861",
"p c #6A6963",
"a c #6A6A64",
"s c #6D6C66",
"d c #6D6D66",
"f c #6F6F68",
"g c #706E68",
"h c #72716A",
"j c #72726C",
"k c #74736C",
"l c #76756E",
"z c #77766F",
"x c #797871",
"c c #797872",
"v c #797972",
"b c #7C7B74",
"n c #7C7B75",
"m c #7C7C75",
"M c #7F7F78",
"N c #807F78",
"B c #807F79",
"V c #808079",
"C c #818079",
"Z c #83837C",
"A c #84837C",
"S c #84837D",
"D c #84847D",
"F c #878681",
"G c #888781",
"H c #888881",
"J c #8B8B85",
"K c #8C8B85",
/* pixels */
"99999999997999999999",
"66666666666677666866",
"4444444<>-;><4444444",
"2222<-=4ajju3--<2222",
":::;&tFKKJJJJGe$;:::",
";;**mHHFGGHFFAGc*=;;",
"**$cDDDSAAAASDDDc%*;",
"&%eCCCVMNNNMMCCmme$$",
"$$bbmnnnnnnnnbbbcc##",
"X4cccccccccccccccc4X",
"Xqlllcfyuuuytgllllq ",
".qlllhw-;>>>;qkklhqo",
".8hhhjhhhhhhhhhhhh5 ",
".&ggggghffgggfffdd=o",
"o@ydsddddddsdddddr#.",
".o&aaasaaaaaauaaa*..",
"..o3ayuauattatya-o..",
"..oo&ytttutttty=#o..",
"....o#<0rrre0<@ ....",
"......oo#&o#oX  ...."
};
