/* XPM */
static char *minimize_unfocus[] = {
/* columns rows colors chars-per-pixel */
"20 20 50 1 ",
"  c #3C3B37",
". c #3C3C37",
"X c #3D3B38",
"o c #3C3C38",
"O c #3D3C38",
"+ c #3F3E3A",
"@ c #403F3B",
"# c #40403B",
"$ c #41403C",
"% c #42413C",
"& c #44423D",
"* c #47453F",
"= c #464540",
"- c #484740",
"; c #4A4841",
": c #494943",
"> c #4D4B43",
", c #4B4A44",
"< c #4B4A46",
"1 c #4C4C45",
"2 c #4D4C47",
"3 c #4F4D46",
"4 c #4F4E49",
"5 c #504E46",
"6 c #505049",
"7 c #525149",
"8 c #53524D",
"9 c #55534C",
"0 c #58564F",
"q c #565550",
"w c #5A5953",
"e c #5A5A54",
"r c #5B5B54",
"t c #5C5C55",
"y c #5E5C56",
"u c #5F5E59",
"i c #615F59",
"p c #61615B",
"a c #62625A",
"s c #64645B",
"d c #63635C",
"f c #64635D",
"g c #65645E",
"h c #65655E",
"j c #67665F",
"k c #696861",
"l c #696961",
"z c #6C6B63",
"x c #6C6C63",
"c c #6D6D64",
/* pixels */
"00000000009w9w000000",
"99999999999999999999",
"77777777311676777777",
"55553,-&346-&--55555",
">>>;&,sxxxzzca-%11>>",
";;-%yxxxxxxzczcw@-;;",
"**#ylllxxczlzzkly@=-",
"&%7llllllllkkllll6@&",
"++jjljjjkklkkjkjjjo@",
"o1jjjjjhjjlsjjjjjj,o",
"o8sjjjuerwwwwiffkf8 ",
"oqjhfjq:*--=-qksss9o",
"o8sjjfhhjjssjfggff4o",
"X%ffpfffgssfffffff*o",
"ooufffffgfffaffffiX ",
"oo%fffuffffffaffs%X ",
"o o5fafiuffppffu,o  ",
"  oo-iffffufppu;oo  ",
"    oo,wfuffe1oooooX",
"    oooo%@Xooooooooo"
};
