/* XPM */
static char *minimize_focus[] = {
/* columns rows colors chars-per-pixel */
"20 20 68 1 ",
"  c #3C3B37",
". c #3C3C38",
"X c #3D3D39",
"o c #413F3A",
"O c #42413C",
"+ c #43413D",
"@ c #43433E",
"# c #44423D",
"$ c #47453F",
"% c #454440",
"& c #474641",
"* c #494742",
"= c #4A4841",
"- c #4D4B43",
"; c #4A4844",
": c #4C4B47",
"> c #4E4E46",
", c #4D4D48",
"< c #504E46",
"1 c #525149",
"2 c #55534C",
"3 c #54544F",
"4 c #58564F",
"5 c #565651",
"6 c #5B5A55",
"7 c #5C5C56",
"8 c #5F5E58",
"9 c #60605B",
"0 c #63625C",
"q c #62625D",
"w c #63635D",
"e c #65645E",
"r c #65655E",
"t c #676661",
"y c #686761",
"u c #686861",
"i c #686862",
"p c #6A6963",
"a c #6A6A63",
"s c #6B6A64",
"d c #6D6C66",
"f c #6F6D68",
"g c #6F6E68",
"h c #6F6F68",
"j c #706F68",
"k c #72716A",
"l c #72716B",
"z c #72726C",
"x c #74736C",
"c c #76756E",
"v c #77766F",
"b c #787871",
"n c #797871",
"m c #797872",
"M c #7C7B74",
"N c #7C7B75",
"B c #7C7C75",
"V c #7F7F78",
"C c #807F78",
"Z c #808079",
"A c #83837C",
"S c #84837D",
"D c #84847D",
"F c #878780",
"G c #888781",
"H c #888881",
"J c #8B8B85",
"K c #8C8B85",
/* pixels */
"44445444445544444444",
"22222222222242222222",
"1111111>&==&<2111111",
"<<<<>&&1szzy>$$<<<><",
"---=$9FKKJJJKG9#$---",
"==&+mFHFGGGFDHFm$$-$",
"$$+mDDDASSSSAADDmO#$",
"#+0CZZZZCCCCCVVVV9+#",
"O#MMMMMMNNNMMMMMNmO+",
" 1mnmnmnmmmmmmmmmm1 ",
" 8cvvnjuyyytrgcccc8 ",
" 8cccz9$;;;;=8xxjz8.",
" 5zzzzjzzzzzzzzzzz2.",
" @jjhjzjghgjjjgggg+.",
"  rgjppjgpjpsjgydwX ",
"  $pssssssspppppp&X ",
"  X>ppttpratattt>X  ",
"   X=0trtrrrrr0$XX  ",
"    XX>70www7;O     ",
"    ..XXO OXO..     "
};
