/* XPM */
static char *shade_focus[] = {
/* columns rows colors chars-per-pixel */
"20 20 35 1 ",
"  c #3C3B37",
". c #3D3C38",
"X c #403F3A",
"o c #413F3A",
"O c #41403B",
"+ c #43423C",
"@ c #44423D",
"# c #46453F",
"$ c #47453F",
"% c #474640",
"& c #484742",
"* c #4A4841",
"= c #4D4B43",
"- c #4F4E49",
"; c #504E46",
": c #525149",
"> c #53524C",
", c #55534C",
"< c #55544E",
"1 c #58564F",
"2 c #585750",
"3 c #585752",
"4 c #5A5953",
"5 c #5E5E57",
"6 c #66655E",
"7 c #6B6A62",
"8 c #74746B",
"9 c #78786E",
"0 c #828279",
"q c #939388",
"w c #96968B",
"e c #98988C",
"r c #99998E",
"t c #9B9B8F",
"y c #9C9C90",
/* pixels */
"11111111111111111111",
",,&              &,,",
"::%              $::",
";;#              #;;",
"==@              @==",
"**@      4<.    .#&*",
"##O     4rr<    ..%%",
"@@o    <eyye<   .oo+",
"O.. ..:ryyyyw:.  .oo",
"...  :wyyyyyyw-  ...",
"..  +qyr8yy9ttqO    ",
"..   7r3<yy15t6.    ",
".     : 3yy<.:.     ",
"      . <yy3        ",
"        3ty3        ",
"       .:00-        ",
"                    ",
"                    ",
"                    ",
"                    "
};
