/* XPM */
static char *shade_unfocus[] = {
/* columns rows colors chars-per-pixel */
"20 20 25 1 ",
"  c #3C3B37",
". c #3F3E39",
"X c #413F3A",
"o c #41403B",
"O c #43423C",
"+ c #44423D",
"@ c #46453F",
"# c #47453F",
"$ c #474640",
"% c #484742",
"& c #4A4841",
"* c #4D4B43",
"= c #4B4A44",
"- c #4D4D46",
"; c #504E46",
": c #525149",
"> c #55534C",
", c #57574F",
"< c #58564F",
"1 c #595951",
"2 c #5E5E56",
"3 c #66665D",
"4 c #69695F",
"5 c #696960",
"6 c #6B6B61",
/* pixels */
"<<<<,,<<<<<<<<<<<<<<",
">>%              %>>",
"::$              %::",
";;@              @;;",
"**+              +=-",
"&&+      =&      X&&",
"@@o     =55=     X=$",
"++X    &5555@    .++",
"...   &566665%   ..o",
"...  $56666565@     ",
"    .355<661553.    ",
"     :5=&56=-4:     ",
"      $ &65=.$      ",
"        &66&        ",
"        =55&        ",
"        $22$        ",
"                    ",
"                    ",
"                    ",
"                    "
};
