/* XPM */
static char *shade_pressed[] = {
/* columns rows colors chars-per-pixel */
"20 20 35 1 ",
"  c #3C3B37",
". c #3D3C38",
"X c #403F3A",
"o c #413F3A",
"O c #41403B",
"+ c #43423C",
"@ c #44423D",
"# c #46453F",
"$ c #47453F",
"% c #474640",
"& c #484742",
"* c #4A4841",
"= c #4D4B43",
"- c #4E4D47",
"; c #4F4F48",
": c #504E46",
"> c #525149",
", c #52514B",
"< c #53524C",
"1 c #55534C",
"2 c #54534D",
"3 c #56554F",
"4 c #58564F",
"5 c #575650",
"6 c #5B5B53",
"7 c #626159",
"8 c #66655D",
"9 c #6E6E65",
"0 c #727268",
"q c #7B7B71",
"w c #8A8A7E",
"e c #8D8C81",
"r c #8E8E83",
"t c #909084",
"y c #929286",
/* pixels */
"44444444444444444444",
"11&              &11",
">>%              $>>",
"::#              #::",
"==@             .@==",
"**@      5,     .#&*",
"##O    .4tr4    ..%%",
"@@o    >ryyr>   .oO+",
"O..  .>ryyyyr-   .XX",
"..   ;eyyyytye-  ...",
"..  .ryr9yy0tywO    ",
"..  .8y5,yy46y7     ",
"      ; 2yy2 -..    ",
"        2yy2        ",
"        2yy,        ",
"       .;qq-        ",
"                    ",
"                    ",
"                    ",
"                    "
};
