/* XPM */
static char *stick_pressed[] = {
/* columns rows colors chars-per-pixel */
"20 20 36 1 ",
"  c #3C3B37",
". c #3D3C38",
"X c #3E3D39",
"o c #413F3A",
"O c #41403B",
"+ c #43423C",
"@ c #44423D",
"# c #46453F",
"$ c #47453F",
"% c #474640",
"& c #484742",
"* c #4A4841",
"= c #4D4B43",
"- c #4C4B46",
"; c #4D4C47",
": c #4F4E48",
"> c #504E46",
", c #525149",
"< c #55534C",
"1 c #58564F",
"2 c #565650",
"3 c #5A5952",
"4 c #5D5C55",
"5 c #64635C",
"6 c #6B6A62",
"7 c #707066",
"8 c #73736A",
"9 c #78776D",
"0 c #808075",
"q c #838378",
"w c #85857A",
"e c #8C8C7F",
"r c #8C8C81",
"t c #8D8D82",
"y c #919185",
"u c #929286",
/* pixels */
"11111111111111111111",
"<<&              &<<",
",,%              %,,",
">>#              %>>",
"==@              %==",
"**@    :4        o%%",
"##O   :tu5       o%%",
"@@o  :tuuu5      o++",
"+.. .ruuuuu8776. .Oo",
"... .3uuuuuuue- .. o",
"    ..3uuuuur-      ",
"      .4uuuu1       ",
"       +uurqq+..    ",
"       .ur-+9e+.    ",
"      ..r;  +qq+    ",
"    ....;.  .+9;    ",
"                    ",
"                    ",
"                    ",
"                    "
};
