/* XPM */
static char *stick_unfocus[] = {
/* columns rows colors chars-per-pixel */
"20 20 32 1 ",
"  c #3C3B37",
". c #3E3E3A",
"X c #403F3A",
"o c #413F3A",
"O c #41403B",
"+ c #43423C",
"@ c #44423D",
"# c #44433E",
"$ c #46453F",
"% c #47453F",
"& c #464540",
"* c #474640",
"= c #484742",
"- c #4A4841",
"; c #4D4B43",
": c #4A4A44",
"> c #4E4D47",
", c #4E4E47",
"< c #504E46",
"1 c #525149",
"2 c #55534C",
"3 c #58564F",
"4 c #585850",
"5 c #5A5A52",
"6 c #5D5C54",
"7 c #616158",
"8 c #63625A",
"9 c #64645B",
"0 c #67675E",
"q c #68685F",
"w c #6A6A60",
"e c #6B6B61",
/* pixels */
"33333333333333333333",
"22=              =22",
"11*              %11",
"<<$              %<<",
";;@              @;;",
"--@    $,        +;%",
"$$O   =qe1       o%=",
"@@o  $0eee1      o+@",
"XX   eeeeee5443  XXX",
" +   ,qqeeeee0$    X",
"      ,qeeee0@      ",
"       ,eeee-       ",
"       .eeq89       ",
"        e0&.99+     ",
"       .0*   99     ",
"        *    +6*    ",
"                    ",
"                    ",
"                    ",
"                    "
};
