/* XPM */
static char *stick_focus[] = {
/* columns rows colors chars-per-pixel */
"20 20 39 1 ",
"  c #3C3B37",
". c #3F3E3A",
"X c #413F3A",
"o c #403F3B",
"O c #41403B",
"+ c #43423C",
"@ c #44423D",
"# c #44433E",
"$ c #46453F",
"% c #47453F",
"& c #474640",
"* c #484742",
"= c #4A4841",
"- c #4D4B43",
"; c #4D4C47",
": c #4F4E49",
"> c #504E46",
", c #504F4A",
"< c #525149",
"1 c #51504B",
"2 c #55534C",
"3 c #58564F",
"4 c #595953",
"5 c #5D5C55",
"6 c #616059",
"7 c #696860",
"8 c #706F67",
"9 c #76766C",
"0 c #797971",
"q c #7F7E74",
"w c #88887D",
"e c #8B8B80",
"r c #8B8A81",
"t c #8E8E83",
"y c #949489",
"u c #95958A",
"i c #96968B",
"p c #9B9B8F",
"a c #9C9C90",
/* pixels */
"33333333333333333333",
"22*              =22",
"<<&              %<<",
">>$              %>>",
"--@              @--",
"==@    :6        @-$",
"$$O   <ia7       o&&",
"@@X  <iaaa7      o@+",
"... +yaaaaa0998. .+.",
" .   5aaaaaaay:     ",
"      5aaaaay:      ",
"      .6aaaa4       ",
"       .apurr+      ",
"       .ay:+wt&     ",
"       .u:  +rr+    ",
"       +:    &q:    ",
"                    ",
"                    ",
"                    ",
"                    "
};
