/* XPM */
static char *unshade_focus[] = {
/* columns rows colors chars-per-pixel */
"20 20 36 1 ",
"  c #3C3B37",
". c #3D3C38",
"X c #3E3D39",
"o c #413F3A",
"O c #41403B",
"+ c #43423C",
"@ c #44423D",
"# c #46453F",
"$ c #47453F",
"% c #474640",
"& c #484742",
"* c #4A4841",
"= c #4D4B43",
"- c #4A4944",
"; c #4D4D46",
": c #4E4D48",
"> c #504E46",
", c #525149",
"< c #51504A",
"1 c #51514B",
"2 c #55534C",
"3 c #56554E",
"4 c #58564F",
"5 c #575650",
"6 c #616159",
"7 c #67665F",
"8 c #6E6E66",
"9 c #73726A",
"0 c #74746B",
"q c #78786E",
"w c #89897E",
"e c #939388",
"r c #95958A",
"t c #97978C",
"y c #9B9B8F",
"u c #9C9C90",
/* pixels */
"44444444444444445544",
"22&              %22",
",,%              %,1",
">>#              %>>",
"==@        .     @==",
"**@     ,ww,     @&=",
"##O     5uu5     o%%",
"@@o     5uu4     oo%",
"+..   , 5uu5 1.  .+o",
"..   9y65uu57u8  .  ",
"    +euy0uuqyue+    ",
"     -euuuuuue-     ",
"      ;euuuye-      ",
"       :ruur:       ",
"        1yt,        ",
"         54         ",
"                    ",
"                    ",
"                    ",
"                    "
};
