/* XPM */
static char *unshade_pressed[] = {
/* columns rows colors chars-per-pixel */
"20 20 33 1 ",
"  c #3C3B37",
". c #3D3C38",
"X c #3E3D39",
"o c #413F3A",
"O c #41403B",
"+ c #43423C",
"@ c #44423D",
"# c #46453F",
"$ c #47453F",
"% c #474640",
"& c #484742",
"* c #4A4841",
"= c #4D4B43",
"- c #4B4B45",
"; c #4F4F48",
": c #504E46",
"> c #525149",
", c #55534C",
"< c #54534D",
"1 c #56554F",
"2 c #58564F",
"3 c #5D5D56",
"4 c #63625A",
"5 c #696960",
"6 c #6E6D65",
"7 c #727268",
"8 c #818176",
"9 c #8A8A7F",
"0 c #8B8B80",
"q c #8C8C81",
"w c #8D8D81",
"e c #8E8E83",
"r c #929286",
/* pixels */
"22222222222222222222",
",,&              &,,",
">>%              $>>",
"::#              #::",
"==@              @==",
"**@     ;88>     @&&",
"##O     <rr<     o%%",
"@@o     <rr,     o@@",
"oO.   ;.<rr< ;.  .oo",
"...  6r3<rr<4r5  ...",
"..  o0re6rr7rr9+    ",
"    .%0rrrrrr0%     ",
"      -0rrrr9%.     ",
"       -qrr0-       ",
"        ;ew;        ",
"        .1<         ",
"                    ",
"                    ",
"                    ",
"                    "
};
