/* XPM */
static char *unshade_unfocus[] = {
/* columns rows colors chars-per-pixel */
"20 20 30 1 ",
"  c #3C3B37",
". c #3E3D39",
"X c #403F3A",
"o c #413F3A",
"O c #41403B",
"+ c #43423C",
"@ c #44423D",
"# c #44443E",
"$ c #46453F",
"% c #47453F",
"& c #464640",
"* c #474640",
"= c #484742",
"- c #4A4841",
"; c #4D4B43",
": c #4A4944",
"> c #4E4E47",
", c #504E46",
"< c #525149",
"1 c #55534C",
"2 c #54544D",
"3 c #57574F",
"4 c #58564F",
"5 c #575650",
"6 c #595951",
"7 c #626259",
"8 c #66665D",
"9 c #67675E",
"0 c #69695F",
"q c #6B6B61",
/* pixels */
"44444444444444445344",
"11=              -11",
"<<*              %<<",
",,$              $,,",
";;@              @;;",
"--@     =77$     +--",
"$$O     -qq-     O%$",
"@@o     -qq-     o@@",
"#..   $ -qq= *   ..o",
"..   5q>*qq:<q2   . ",
"    .9qq5qq6qq9.    ",
"     O9qqqqqq9#     ",
"      #9qqqq9#      ",
"       *9qq9#       ",
"        $00*        ",
"         :=         ",
"                    ",
"                    ",
"                    ",
"                    "
};
