/* XPM */
static char *unstick_pressed[] = {
/* columns rows colors chars-per-pixel */
"20 20 25 1 ",
"  c #3C3B37",
". c #3D3C38",
"X c #403F3A",
"o c #413F3A",
"O c #41403B",
"+ c #43423C",
"@ c #44423D",
"# c #46453F",
"$ c #47453F",
"% c #474640",
"& c #484742",
"* c #4A4841",
"= c #4D4B43",
"- c #4C4B46",
"; c #504E46",
": c #525149",
"> c #52514C",
", c #55534C",
"< c #58564F",
"1 c #66665E",
"2 c #696860",
"3 c #75756C",
"4 c #78776D",
"5 c #7D7D73",
"6 c #929286",
/* pixels */
"<<<<<<<<<<<<<<<<<<<<",
",,&              &:,",
"::%              &::",
";;#              $;;",
"==@   .          @;-",
"**@ -552    155- @&*",
"##O :664    366: o%%",
"@@o :664    366> oo#",
"XX. X>:-    ->>o ...",
"O..               + ",
"                    ",
"                    ",
"    +>>-    ->>.    ",
"    >664    366>    ",
"    >663    366>    ",
"    -552    255-    ",
"                    ",
"                    ",
"                    ",
"                    "
};
