/* XPM */
static char *unstick_focus[] = {
/* columns rows colors chars-per-pixel */
"20 20 28 1 ",
"  c #3C3B37",
". c #3D3C38",
"X c #3E3D39",
"o c #403F3A",
"O c #413F3A",
"+ c #41403B",
"@ c #43423C",
"# c #44423D",
"$ c #46453F",
"% c #47453F",
"& c #474640",
"* c #484742",
"= c #4A4841",
"- c #4D4B43",
"; c #4D4C47",
": c #4E4D48",
"> c #504E46",
", c #525149",
"< c #55534C",
"1 c #54534D",
"2 c #55544F",
"3 c #58564F",
"4 c #6B6B63",
"5 c #6E6D66",
"6 c #7B7B72",
"7 c #7F7E74",
"8 c #84847A",
"9 c #9C9C90",
/* pixels */
"33333333333333333333",
"<<*              *<<",
",,&              %,,",
">>$              *>>",
"--#             .#--",
"==# :885    488:.O**",
"$$+ <997    6991X@&&",
"##O 1997    6991..@.",
"@X. .22;    :1<@ .@@",
"... .          .....",
"..                  ",
" .                  ",
"    @22:    :22@    ",
"    1997    6991    ",
"    1997    6991    ",
"    :885    488:    ",
"                    ",
"                    ",
"                    ",
"                    "
};
