/* XPM */
static char *unstick_unfocus[] = {
/* columns rows colors chars-per-pixel */
"20 20 26 1 ",
"  c #3C3B37",
". c #3D3C38",
"X c #3E3D39",
"o c #3F3E3A",
"O c #403F3A",
"+ c #413F3A",
"@ c #41403B",
"# c #43423C",
"$ c #44423D",
"% c #44433F",
"& c #46453F",
"* c #47453F",
"= c #474640",
"- c #484741",
"; c #484742",
": c #4A4841",
"> c #4D4B43",
", c #504E46",
"< c #525149",
"1 c #55534C",
"2 c #54534D",
"3 c #58564F",
"4 c #5B5B53",
"5 c #5D5C54",
"6 c #606057",
"7 c #6B6B61",
/* pixels */
"33333333333333333333",
"11;              :11",
"<<=              &<2",
",,&              =,>",
">>$             X@>>",
"::$ &662    265&X+:;",
"&&@ &775    477:X+;;",
"$$+ :775    477:X+@X",
"ooX X;==    ===o Xo@",
"XX               XXX",
"                    ",
"                    ",
"    o;;=    ==;o    ",
"    =774    477=    ",
"    =774    477=    ",
"    =662    266=    ",
"                    ",
"                    ",
"                    ",
"                    "
};
